<svg width="1024" height="768" xmlns="http://www.w3.org/2000/svg">
 <!-- Created with Method Draw - http://github.com/duopixel/Method-Draw/ -->

 <g>
  <title>background</title>
  <rect fill="#93afbf" id="canvas_background" height="770" width="1026" y="-1" x="-1"/>
  <g display="none" id="canvasGrid">
   <rect fill="url(#gridpattern)" stroke-width="0" y="0" x="0" height="100%" width="100%" id="svg_1"/>
  </g>
 </g>
 <g>
  <title>Layer 1</title>
  <path id="svg_2" d="m109.5,143.4375" opacity="0.5" stroke-width="3.5" stroke="#000" fill="#93afbf"/>
  <path id="svg_5" d="m202.50005,199.9999" opacity="0.5" fill-opacity="null" stroke-opacity="null" stroke-width="3.5" stroke="#000" fill="#93afbf"/>
  <path id="svg_7" d="m22.80849,341.39089c125.00552,-87.57716 235.29311,-95.89926 142.47843,56.93184c-92.81467,152.8311 -143.87754,-228.98904 112.04355,47.36368c255.9211,276.35272 -434.08624,378.89535 -149.00256,124.76094c142.54184,-127.06722 607.53953,109.13917 477.08267,-128.14186c-32.61422,-59.32025 -503.89062,-271.38883 -465.62912,-371.04021c38.26152,-99.6514 267.47546,661.1692 205.7789,111.88784c-30.84828,-274.64068 283.00257,-117.46891 243.17241,68.71436c-39.83015,186.18327 -192.18185,96.73638 -164.25693,209.63164c13.96246,56.44763 537.45738,111.92777 298.86967,-8.96393c-119.29388,-60.44584 -87.66477,-356.55964 51.65481,-94.70478c69.65978,130.92745 -69.48249,45.5649 -28.52779,10.97312c20.47735,-17.29589 42.04844,-69.33668 87.07447,41.0112c45.02604,110.34787 37.31776,-53.40164 64.53155,-21.02058c27.2138,32.38106 21.83465,114.49256 97.55549,5.50791" fill-opacity="null" stroke-opacity="null" stroke-width="3.5" fill="#93afbf" stroke="#000"/>
  <path fill="#fff" stroke="#000" stroke-width="1.5" stroke-opacity="null" fill-opacity="null" id="svg_4"/>
  <path fill="#93afbf" stroke="#63879c" stroke-width="1.5" stroke-opacity="null" fill-opacity="null" d="m154,200c-9.74066,-10.28125 -28.36566,23.07813 -45.11799,5.82813c-16.75233,-17.25 -38.63201,18.89062 -59.88201,0.17187" id="svg_11"/>
  <path fill="#93afbf" stroke="#63879c" stroke-width="1.5" stroke-opacity="null" fill-opacity="null" d="m125,38c-9.74066,-10.28125 -28.36566,23.07813 -45.11799,5.82813c-16.75233,-17.25 -38.63201,18.89062 -59.88201,0.17187" id="svg_3"/>
  <path fill="#93afbf" stroke="#63879c" stroke-width="1.5" stroke-opacity="null" fill-opacity="null" d="m136,114c-9.74066,-10.28125 -28.36566,23.07813 -45.11799,5.82813c-16.75233,-17.25 -38.63201,18.89062 -59.88201,0.17187" id="svg_6"/>
  <path fill="#93afbf" stroke="#63879c" stroke-width="1.5" stroke-opacity="null" fill-opacity="null" d="m305,43c-9.74066,-10.28125 -28.36566,23.07813 -45.11799,5.82813c-16.75233,-17.25 -38.63201,18.89062 -59.88201,0.17187" id="svg_8"/>
  <path fill="#93afbf" stroke="#63879c" stroke-width="1.5" stroke-opacity="null" fill-opacity="null" d="m154,200c-9.74066,-10.28125 -28.36566,23.07813 -45.11799,5.82813c-16.75233,-17.25 -38.63201,18.89062 -59.88201,0.17187" id="svg_9"/>
  <path id="svg_10" d="m109.5,143.4375" opacity="0.5" stroke-width="3.5" stroke="#000" fill="#93afbf"/>
  <path id="svg_12" d="m22.80849,341.39089c125.00552,-87.57716 235.29311,-95.89926 142.47843,56.93184c-92.81467,152.8311 -143.87754,-228.98904 112.04355,47.36368c255.9211,276.35272 -434.08624,378.89535 -149.00256,124.76094c142.54184,-127.06722 607.53953,109.13917 477.08267,-128.14186c-32.61422,-59.32025 -503.89062,-271.38883 -465.62912,-371.04021c38.26152,-99.6514 267.47546,661.1692 205.7789,111.88784c-30.84828,-274.64068 283.00257,-117.46891 243.17241,68.71436c-39.83015,186.18327 -192.18185,96.73638 -164.25693,209.63164c13.96246,56.44763 537.45738,111.92777 298.86967,-8.96393c-119.29388,-60.44584 -87.66477,-356.55964 51.65481,-94.70478c69.65978,130.92745 -69.48249,45.5649 -28.52779,10.97312c20.47735,-17.29589 42.04844,-69.33668 87.07447,41.0112c45.02604,110.34787 37.31776,-53.40164 64.53155,-21.02058c27.2138,32.38106 21.83465,114.49256 97.55549,5.50791" fill-opacity="null" stroke-opacity="null" stroke-width="3.5" fill="#93afbf" stroke="#000"/>
  <path fill="#93afbf" stroke="#63879c" stroke-width="1.5" stroke-opacity="null" fill-opacity="null" d="m154,200c-9.74066,-10.28125 -28.36566,23.07813 -45.11799,5.82813c-16.75233,-17.25 -38.63201,18.89062 -59.88201,0.17187" id="svg_13"/>
  <path fill="#93afbf" stroke="#63879c" stroke-width="1.5" stroke-opacity="null" fill-opacity="null" d="m125,38c-9.74066,-10.28125 -28.36566,23.07813 -45.11799,5.82813c-16.75233,-17.25 -38.63201,18.89062 -59.88201,0.17187" id="svg_14"/>
  <path fill="#93afbf" stroke="#63879c" stroke-width="1.5" stroke-opacity="null" fill-opacity="null" d="m136,114c-9.74066,-10.28125 -28.36566,23.07813 -45.11799,5.82813c-16.75233,-17.25 -38.63201,18.89062 -59.88201,0.17187" id="svg_15"/>
  <path fill="#93afbf" stroke="#63879c" stroke-width="1.5" stroke-opacity="null" fill-opacity="null" d="m1004.999143,346.88849c-9.74066,-10.28125 -28.36566,23.07813 -45.11799,5.82813c-16.75233,-17.25 -38.63201,18.89062 -59.88201,0.17187" id="svg_16"/>
  <path id="svg_23" d="m109.5,143.4375" opacity="0.5" stroke-width="3.5" stroke="#000" fill="#93afbf"/>
  <path id="svg_24" d="m22.80849,341.39089c125.00552,-87.57716 235.29311,-95.89926 142.47843,56.93184c-92.81467,152.8311 -143.87754,-228.98904 112.04355,47.36368c255.9211,276.35272 -434.08624,378.89535 -149.00256,124.76094c142.54184,-127.06722 607.53953,109.13917 477.08267,-128.14186c-32.61422,-59.32025 -503.89062,-271.38883 -465.62912,-371.04021c38.26152,-99.6514 267.47546,661.1692 205.7789,111.88784c-30.84828,-274.64068 283.00257,-117.46891 243.17241,68.71436c-39.83015,186.18327 -192.18185,96.73638 -164.25693,209.63164c13.96246,56.44763 537.45738,111.92777 298.86967,-8.96393c-119.29388,-60.44584 -87.66477,-356.55964 51.65481,-94.70478c69.65978,130.92745 -69.48249,45.5649 -28.52779,10.97312c20.47735,-17.29589 42.04844,-69.33668 87.07447,41.0112c45.02604,110.34787 37.31776,-53.40164 64.53155,-21.02058c27.2138,32.38106 21.83465,114.49256 97.55549,5.50791" fill-opacity="null" stroke-opacity="null" stroke-width="3.5" fill="#93afbf" stroke="#000"/>
  <path fill="#93afbf" stroke="#63879c" stroke-width="1.5" stroke-opacity="null" fill-opacity="null" d="m154,200c-9.74066,-10.28125 -28.36566,23.07813 -45.11799,5.82813c-16.75233,-17.25 -38.63201,18.89062 -59.88201,0.17187" id="svg_25"/>
  <path fill="#93afbf" stroke="#63879c" stroke-width="1.5" stroke-opacity="null" fill-opacity="null" d="m125,38c-9.74066,-10.28125 -28.36566,23.07813 -45.11799,5.82813c-16.75233,-17.25 -38.63201,18.89062 -59.88201,0.17187" id="svg_26"/>
  <path fill="#93afbf" stroke="#63879c" stroke-width="1.5" stroke-opacity="null" fill-opacity="null" d="m136,114c-9.74066,-10.28125 -28.36566,23.07813 -45.11799,5.82813c-16.75233,-17.25 -38.63201,18.89062 -59.88201,0.17187" id="svg_27"/>
  <path fill="#93afbf" stroke="#63879c" stroke-width="1.5" stroke-opacity="null" fill-opacity="null" d="m154,200c-9.74066,-10.28125 -28.36566,23.07813 -45.11799,5.82813c-16.75233,-17.25 -38.63201,18.89062 -59.88201,0.17187" id="svg_28"/>
  <path id="svg_29" d="m109.5,143.4375" opacity="0.5" stroke-width="3.5" stroke="#000" fill="#93afbf"/>
  <path fill="#93afbf" stroke="#63879c" stroke-width="1.5" stroke-opacity="null" fill-opacity="null" d="m154,200c-9.74066,-10.28125 -28.36566,23.07813 -45.11799,5.82813c-16.75233,-17.25 -38.63201,18.89062 -59.88201,0.17187" id="svg_31"/>
  <path fill="#93afbf" stroke="#63879c" stroke-width="1.5" stroke-opacity="null" fill-opacity="null" d="m125,38c-9.74066,-10.28125 -28.36566,23.07813 -45.11799,5.82813c-16.75233,-17.25 -38.63201,18.89062 -59.88201,0.17187" id="svg_32"/>
  <path fill="#93afbf" stroke="#63879c" stroke-width="1.5" stroke-opacity="null" fill-opacity="null" d="m136,114c-9.74066,-10.28125 -28.36566,23.07813 -45.11799,5.82813c-16.75233,-17.25 -38.63201,18.89062 -59.88201,0.17187" id="svg_33"/>
  <path fill="#93afbf" stroke="#63879c" stroke-width="1.5" stroke-opacity="null" fill-opacity="null" d="m154,200c-9.74066,-10.28125 -28.36566,23.07813 -45.11799,5.82813c-16.75233,-17.25 -38.63201,18.89062 -59.88201,0.17187" id="svg_34"/>
  <path fill="#93afbf" stroke="#63879c" stroke-width="1.5" stroke-opacity="null" fill-opacity="null" d="m505,105c-9.74066,-10.28125 -28.36566,23.07813 -45.11799,5.82813c-16.75233,-17.25 -38.63201,18.89062 -59.88201,0.17187" id="svg_35"/>
  <path fill="#93afbf" stroke="#63879c" stroke-width="1.5" stroke-opacity="null" fill-opacity="null" d="m390,418c-9.74066,-10.28125 -28.36566,23.07813 -45.11799,5.82813c-16.75233,-17.25 -38.63201,18.89062 -59.88201,0.17187" id="svg_36"/>
  <path stroke="#63879c" fill="#93afbf" stroke-width="1.5" stroke-opacity="null" fill-opacity="null" d="m293,352c-8.256369,-10.28125 -24.043274,23.07813 -38.242868,5.82813c-14.199594,-17.25 -32.745228,18.89062 -50.757133,0.17187" id="svg_37"/>
  <path fill="#93afbf" stroke="#63879c" stroke-width="1.5" stroke-opacity="null" fill-opacity="null" d="m293,584c-9.74066,-10.28125 -28.36566,23.07813 -45.11799,5.82813c-16.75233,-17.25 -38.63201,18.89062 -59.88201,0.17187" id="svg_38"/>
  <path fill="#93afbf" stroke="#63879c" stroke-width="1.5" stroke-opacity="null" fill-opacity="null" d="m209,658c-9.74066,-10.28125 -28.36566,23.07813 -45.11799,5.82813c-16.75233,-17.25 -38.63201,18.89062 -59.88201,0.17187" id="svg_39"/>
  <path fill="#93afbf" stroke="#63879c" stroke-width="1.5" stroke-opacity="null" fill-opacity="null" d="m111,544c-9.74066,-10.28125 -28.36566,23.07813 -45.11799,5.82813c-16.75233,-17.25 -38.63201,18.89062 -59.88201,0.17187" id="svg_40"/>
  <path fill="#93afbf" stroke="#63879c" stroke-width="1.5" stroke-opacity="null" fill-opacity="null" d="m265,491c-9.74066,-10.28125 -28.36566,23.07813 -45.11799,5.82813c-16.75233,-17.25 -38.63201,18.89062 -59.88201,0.17187" id="svg_41"/>
  <path fill="#93afbf" stroke="#63879c" stroke-width="1.5" stroke-opacity="null" fill-opacity="null" d="m120,463c-9.74066,-10.28125 -28.36566,23.07813 -45.11799,5.82813c-16.75233,-17.25 -38.63201,18.89062 -59.88201,0.17187" id="svg_42"/>
  <path fill="#93afbf" stroke="#63879c" stroke-width="1.5" stroke-opacity="null" fill-opacity="null" d="m462,167c-9.74066,-10.28125 -28.36566,23.07813 -45.11799,5.82813c-16.75233,-17.25 -38.63201,18.89062 -59.88201,0.17187" id="svg_43"/>
  <path fill="#93afbf" stroke="#63879c" stroke-width="1.5" stroke-opacity="null" fill-opacity="null" d="m489,246c-9.74066,-10.28125 -28.36566,23.07813 -45.11799,5.82813c-16.75233,-17.25 -38.63201,18.89062 -59.88201,0.17187" id="svg_44"/>
  <path fill="#93afbf" stroke="#63879c" stroke-width="1.5" stroke-opacity="null" fill-opacity="null" d="m565,281c-9.74066,-10.28125 -28.36566,23.07813 -45.11799,5.82813c-16.75233,-17.25 -38.63201,18.89062 -59.88201,0.17187" id="svg_45"/>
  <path fill="#93afbf" stroke="#63879c" stroke-width="1.5" stroke-opacity="null" fill-opacity="null" d="m548,204c-9.74066,-10.28125 -28.36566,23.07813 -45.11799,5.82813c-16.75233,-17.25 -38.63201,18.89062 -59.88201,0.17187" id="svg_46"/>
  <path fill="#93afbf" stroke="#63879c" stroke-width="1.5" stroke-opacity="null" fill-opacity="null" d="m547,594c-9.74066,-10.28125 -28.36566,23.07813 -45.11799,5.82813c-16.75233,-17.25 -38.63201,18.89062 -59.88201,0.17187" id="svg_47"/>
  <path fill="#93afbf" stroke="#63879c" stroke-width="1.5" stroke-opacity="null" fill-opacity="null" d="m447,642c-9.74066,-10.28125 -28.36566,23.07813 -45.11799,5.82813c-16.75233,-17.25 -38.63201,18.89062 -59.88201,0.17187" id="svg_48"/>
  <path fill="#93afbf" stroke="#63879c" stroke-width="1.5" stroke-opacity="null" fill-opacity="null" d="m345,721c-9.74066,-10.28125 -28.36566,23.07813 -45.11799,5.82813c-16.75233,-17.25 -38.63201,18.89062 -59.88201,0.17187" id="svg_49"/>
  <path fill="#93afbf" stroke="#63879c" stroke-width="1.5" stroke-opacity="null" fill-opacity="null" d="m130,736c-9.74066,-10.28125 -28.36566,23.07813 -45.11799,5.82813c-16.75233,-17.25 -38.63201,18.89062 -59.88201,0.17187" id="svg_50"/>
  <path stroke="#63879c" fill="#93afbf" stroke-width="1.5" stroke-opacity="null" fill-opacity="null" d="m458,497.186971c-9.74066,-16.349958 -28.36566,36.700445 -45.11799,9.268297c-16.75233,-27.432148 -38.63201,30.041176 -59.88201,0.27332" id="svg_51"/>
  <path fill="#93afbf" stroke="#63879c" stroke-width="1.5" stroke-opacity="null" fill-opacity="null" d="m593,447c-9.74066,-10.28125 -28.36566,23.07813 -45.11799,5.82813c-16.75233,-17.25 -38.63201,18.89062 -59.88201,0.17187" id="svg_52"/>
  <path fill="#93afbf" stroke="#63879c" stroke-width="1.5" stroke-opacity="null" fill-opacity="null" d="m117,250c-9.74066,-10.28125 -28.36566,23.07813 -45.11799,5.82813c-16.75233,-17.25 -38.63201,18.89062 -59.88201,0.17187" id="svg_53"/>
  <path fill="#93afbf" stroke="#63879c" stroke-width="1.5" stroke-opacity="null" fill-opacity="null" d="m339,111c-9.74066,-10.28125 -28.36566,23.07813 -45.11799,5.82813c-16.75233,-17.25 -38.63201,18.89062 -59.88201,0.17187" id="svg_54"/>
  <path fill="#93afbf" stroke="#63879c" stroke-width="1.5" stroke-opacity="null" fill-opacity="null" d="m749,488c-9.74066,-10.28125 -28.36566,23.07813 -45.11799,5.82813c-16.75233,-17.25 -38.63201,18.89062 -59.88201,0.17187" id="svg_55"/>
  <path fill="#93afbf" stroke="#63879c" stroke-width="1.5" stroke-opacity="null" fill-opacity="null" d="m988.998951,548.999437c-9.74066,-10.28125 -28.36566,23.07813 -45.11799,5.82813c-16.75233,-17.25 -38.63201,18.89062 -59.88201,0.17187" id="svg_56"/>
  <path stroke="#63879c" fill="#93afbf" stroke-width="1.5" stroke-opacity="null" fill-opacity="null" d="m644.11111,317c-5.937164,-10.28125 -17.289546,23.07813 -27.50049,5.82813c-10.210944,-17.25 -23.547131,18.89062 -36.499512,0.17187" id="svg_57"/>
  <path fill="#93afbf" stroke="#63879c" stroke-width="1.5" stroke-opacity="null" fill-opacity="null" d="m941.221313,490.110733c-9.74066,-10.28125 -28.36566,23.07813 -45.11799,5.82813c-16.75233,-17.25 -38.63201,18.89062 -59.88201,0.17187" id="svg_58"/>
  <path fill="#93afbf" stroke="#63879c" stroke-width="1.5" stroke-opacity="null" fill-opacity="null" d="m773.444061,573.443802c-9.74066,-10.28125 -28.36566,23.07813 -45.11799,5.82813c-16.75233,-17.25 -38.63201,18.89062 -59.88201,0.17187" id="svg_59"/>
  <path fill="#93afbf" stroke="#63879c" stroke-width="1.5" stroke-opacity="null" fill-opacity="null" d="m764.555199,650.110229c-9.74066,-10.28125 -28.36566,23.07813 -45.11799,5.82813c-16.75233,-17.25 -38.63201,18.89062 -59.88201,0.17187" id="svg_60"/>
  <path fill="#93afbf" stroke="#63879c" stroke-width="1.5" stroke-opacity="null" fill-opacity="null" d="m668.999937,728.998871c-9.74066,-10.28125 -28.36566,23.07813 -45.11799,5.82813c-16.75233,-17.25 -38.63201,18.89062 -59.88201,0.17187" id="svg_61"/>
  <path fill="#93afbf" stroke="#63879c" stroke-width="1.5" stroke-opacity="null" fill-opacity="null" d="m527.889267,703.44339c-9.74066,-10.28125 -28.36566,23.07813 -45.11799,5.82813c-16.75233,-17.25 -38.63201,18.89062 -59.88201,0.17187" id="svg_62"/>
  <path fill="#93afbf" stroke="#63879c" stroke-width="1.5" stroke-opacity="null" fill-opacity="null" d="m602.333477,655.665771c-9.74066,-10.28125 -28.36566,23.07813 -45.11799,5.82813c-16.75233,-17.25 -38.63201,18.89062 -59.88201,0.17187" id="svg_63"/>
  <path fill="#93afbf" stroke="#63879c" stroke-width="1.5" stroke-opacity="null" fill-opacity="null" d="m1008.998888,648.999129c-9.74066,-10.28125 -28.36566,23.07813 -45.11799,5.82813c-16.75233,-17.25 -38.63201,18.89062 -59.88201,0.17187" id="svg_64"/>
  <path fill="#93afbf" stroke="#63879c" stroke-width="1.5" stroke-opacity="null" fill-opacity="null" d="m994.554491,731.221099c-9.74066,-10.28125 -28.36566,23.07813 -45.11799,5.82813c-16.75233,-17.25 -38.63201,18.89062 -59.88201,0.17187" id="svg_65"/>
  <path fill="#93afbf" stroke="#63879c" stroke-width="1.5" stroke-opacity="null" fill-opacity="null" d="m852.332712,701.221182c-9.74066,-10.28125 -28.36566,23.07813 -45.11799,5.82813c-16.75233,-17.25 -38.63201,18.89062 -59.88201,0.17187" id="svg_66"/>
  <path fill="#93afbf" stroke="#63879c" stroke-width="1.5" stroke-opacity="null" fill-opacity="null" d="m910.110308,612.332572c-9.74066,-10.28125 -28.36566,23.07813 -45.11799,5.82813c-16.75233,-17.25 -38.63201,18.89062 -59.88201,0.17187" id="svg_67"/>
  <path fill="#93afbf" stroke="#63879c" stroke-width="1.5" stroke-opacity="null" fill-opacity="null" d="m651.222231,377.888854c-9.74066,-10.28125 -28.36566,23.07813 -45.11799,5.82813c-16.75233,-17.25 -38.63201,18.89062 -59.88201,0.17187" id="svg_68"/>
  <path fill="#93afbf" stroke="#63879c" stroke-width="1.5" stroke-opacity="null" fill-opacity="null" d="m623.889206,23.556152c-9.74066,-10.28125 -28.36566,23.07813 -45.11799,5.82813c-16.75233,-17.25 -38.63201,18.89062 -59.88201,0.17187" id="svg_69"/>
  <path fill="#93afbf" stroke="#63879c" stroke-width="1.5" stroke-opacity="null" fill-opacity="null" d="m697.222309,81.333755c-9.74066,-10.28125 -28.36566,23.07813 -45.11799,5.82813c-16.75233,-17.25 -38.63201,18.89062 -59.88201,0.17187" id="svg_70"/>
  <path fill="#93afbf" stroke="#63879c" stroke-width="1.5" stroke-opacity="null" fill-opacity="null" d="m742.777723,148.000221c-9.74066,-10.28125 -28.36566,23.07813 -45.11799,5.82813c-16.75233,-17.25 -38.63201,18.89062 -59.88201,0.17187" id="svg_71"/>
  <path fill="#93afbf" stroke="#63879c" stroke-width="1.5" stroke-opacity="null" fill-opacity="null" d="m726.111112,212.444463c-9.74066,-10.28125 -28.36566,23.07813 -45.11799,5.82813c-16.75233,-17.25 -38.63201,18.89062 -59.88201,0.17187" id="svg_72"/>
  <path fill="#93afbf" stroke="#63879c" stroke-width="1.5" stroke-opacity="null" fill-opacity="null" d="m904.999448,309.110833c-9.74066,-10.28125 -28.36566,23.07813 -45.11799,5.82813c-16.75233,-17.25 -38.63201,18.89062 -59.88201,0.17187" id="svg_73"/>
  <path fill="#93afbf" stroke="#63879c" stroke-width="1.5" stroke-opacity="null" fill-opacity="null" d="m1014.999109,269.110959c-9.74066,-10.28125 -28.36566,23.07813 -45.11799,5.82813c-16.75233,-17.25 -38.63201,18.89062 -59.88201,0.17187" id="svg_74"/>
  <path fill="#93afbf" stroke="#63879c" stroke-width="1.5" stroke-opacity="null" fill-opacity="null" d="m867.221784,237.999944c-9.74066,-10.28125 -28.36566,23.07813 -45.11799,5.82813c-16.75233,-17.25 -38.63201,18.89062 -59.88201,0.17187" id="svg_75"/>
  <path fill="#93afbf" stroke="#63879c" stroke-width="1.5" stroke-opacity="null" fill-opacity="null" d="m868.332899,176.889028c-9.74066,-10.28125 -28.36566,23.07813 -45.11799,5.82813c-16.75233,-17.25 -38.63201,18.89062 -59.88201,0.17187" id="svg_76"/>
  <path fill="#93afbf" stroke="#63879c" stroke-width="1.5" stroke-opacity="null" fill-opacity="null" d="m1011.665786,211.333364c-9.74066,-10.28125 -28.36566,23.07813 -45.11799,5.82813c-16.75233,-17.25 -38.63201,18.89062 -59.88201,0.17187" id="svg_77"/>
  <path fill="#93afbf" stroke="#63879c" stroke-width="1.5" stroke-opacity="null" fill-opacity="null" d="m948.332647,140.222478c-9.74066,-10.28125 -28.36566,23.07813 -45.11799,5.82813c-16.75233,-17.25 -38.63201,18.89062 -59.88201,0.17187" id="svg_78"/>
  <path fill="#93afbf" stroke="#63879c" stroke-width="1.5" stroke-opacity="null" fill-opacity="null" d="m847.22186,98.000386c-9.74066,-10.28125 -28.36566,23.07813 -45.11799,5.82813c-16.75233,-17.25 -38.63201,18.89062 -59.88201,0.17187" id="svg_79"/>
  <path fill="#93afbf" stroke="#63879c" stroke-width="1.5" stroke-opacity="null" fill-opacity="null" d="m1020.554648,84.667073c-9.74066,-10.28125 -28.36566,23.07813 -45.11799,5.82813c-16.75233,-17.25 -38.63201,18.89062 -59.88201,0.17187" id="svg_80"/>
  <path fill="#93afbf" stroke="#63879c" stroke-width="1.5" stroke-opacity="null" fill-opacity="null" d="m811.666407,28.000581c-9.74066,-10.28125 -28.36566,23.07813 -45.11799,5.82813c-16.75233,-17.25 -38.63201,18.89062 -59.88201,0.17187" id="svg_81"/>
  <path fill="#93afbf" stroke="#63879c" stroke-width="1.5" stroke-opacity="null" fill-opacity="null" d="m968.332587,36.889467c-9.74066,-10.28125 -28.36566,23.07813 -45.11799,5.82813c-16.75233,-17.25 -38.63201,18.89062 -59.88201,0.17187" id="svg_82"/>
  <path stroke="#63879c" fill="#93afbf" stroke-width="1.5" stroke-opacity="null" fill-opacity="null" d="m735.221939,341.444368c-5.93716,-10.28125 -17.28954,23.07813 -27.50049,5.82813c-10.21094,-17.25 -23.54713,18.89062 -36.49951,0.17187" id="svg_83"/>
  <path stroke="#63879c" fill="#93afbf" stroke-width="1.5" stroke-opacity="null" fill-opacity="null" d="m438.556198,346.999907c-5.93716,-10.28125 -17.28954,23.07813 -27.50049,5.82813c-10.21094,-17.25 -23.54713,18.89062 -36.49951,0.17187" id="svg_84"/>
  <path stroke="#63879c" fill="#93afbf" stroke-width="1.5" stroke-opacity="null" fill-opacity="null" d="m349.667587,289.143225c-5.215633,-21.238631 -15.188388,47.673958 -24.158428,12.039538c-8.970031,-35.63442 -20.685509,39.023553 -32.06382,0.355043" id="svg_85"/>
  <path stroke="#63879c" fill="#93afbf" stroke-width="1.5" stroke-opacity="null" fill-opacity="null" d="m225.223511,241.444679c-5.93716,-10.28125 -17.28954,23.07813 -27.50049,5.82813c-10.21094,-17.25 -23.54713,18.89062 -36.49951,0.17187" id="svg_86"/>
  <path stroke="#63879c" fill="#93afbf" stroke-width="1.5" stroke-opacity="null" fill-opacity="null" d="m73.00177,392.555321c-5.93716,-10.28125 -17.28954,23.07813 -27.50049,5.82813c-10.21094,-17.25 -23.54713,18.89062 -36.49951,0.17187" id="svg_87"/>
  <path stroke="#63879c" fill="#93afbf" stroke-width="1.5" stroke-opacity="null" fill-opacity="null" d="m336.334285,188.111511c-5.93716,-10.28125 -17.28955,23.07813 -27.50049,5.82813c-10.21094,-17.25 -23.54713,18.89062 -36.49951,0.17187" id="svg_88"/>
 </g>
</svg>